<svg width="45" height="44" viewBox="0 0 45 44" fill="none" xmlns="http://www.w3.org/2000/svg">
<g clip-path="url(#clip0_1_2120)">
<path d="M16.3893 4.71168C16.648 4.62018 16.924 4.58793 17.1968 4.61729C17.4697 4.64666 17.7324 4.7369 17.9658 4.88135C18.1991 5.02581 18.397 5.2208 18.5449 5.45194C18.6928 5.68308 18.7869 5.94448 18.8203 6.21685L18.8332 6.43868V22C18.8329 22.9251 19.1822 23.8161 19.8112 24.4944C20.4402 25.1727 21.3024 25.5881 22.2248 25.6575L22.4998 25.6667H38.0612C38.3544 25.6667 38.6434 25.737 38.9039 25.8718C39.1643 26.0065 39.3886 26.2018 39.558 26.4412C39.7274 26.6806 39.8368 26.9572 39.8772 27.2476C39.9176 27.5381 39.8877 27.834 39.79 28.1105C37.2728 35.2293 30.4858 40.3333 22.4998 40.3333C12.3743 40.3333 4.1665 32.1255 4.1665 22C4.1665 14.014 9.2705 7.22702 16.3893 4.71168ZM24.313 3.76752L24.533 3.77852C28.6673 4.24093 32.5215 6.09511 35.4631 9.03672C38.4047 11.9783 40.2589 15.8326 40.7213 19.9668C40.7741 20.4465 40.6357 20.9275 40.336 21.3057C40.0364 21.684 39.5998 21.9288 39.1208 21.9872L38.9008 22H24.3332C23.8841 22 23.4507 21.8351 23.1152 21.5367C22.7796 21.2383 22.5652 20.8271 22.5127 20.3812L22.4998 20.1667V5.60085C22.4998 5.11809 22.6902 4.65481 23.0297 4.31157C23.3691 3.96832 23.8303 3.77283 24.313 3.76752Z" fill="#F26D6E"/>
</g>
<defs>
<clipPath id="clip0_1_2120">
<rect width="44" height="44" fill="white" transform="translate(0.5)"/>
</clipPath>
</defs>
</svg>
