<svg width="45" height="44" viewBox="0 0 45 44" fill="none" xmlns="http://www.w3.org/2000/svg">
<g clip-path="url(#clip0_1_949)">
<path d="M4.16663 16.3059C4.16663 14.8644 4.74609 13.4819 5.77754 12.4626C6.80899 11.4432 8.20794 10.8706 9.66663 10.8706H14.8971C15.4416 10.8706 15.7771 10.3108 15.5681 9.81433C15.4625 9.57029 15.3791 9.31746 15.3188 9.05883C14.712 6.36474 16.7708 3.62354 19.75 3.62354C22.731 3.62354 24.788 6.36474 24.1811 9.05883C24.1208 9.31745 24.0373 9.57027 23.9318 9.81433C23.721 10.3108 24.0583 10.8706 24.6028 10.8706H28C29.4587 10.8706 30.8576 11.4432 31.889 12.4626C32.9205 13.4819 33.5 14.8644 33.5 16.3059V19.6631C33.5 20.2012 34.0646 20.5327 34.5688 20.3262C34.8163 20.2247 35.0693 20.1378 35.3333 20.0798C38.0595 19.4801 40.8333 21.5129 40.8333 24.4588C40.8333 27.4048 38.0595 29.4376 35.3333 28.8379C35.0716 28.7783 34.8157 28.6958 34.5688 28.5915C34.0665 28.3831 33.5 28.7165 33.5 29.2546V34.4235C33.5 35.8651 32.9205 37.2476 31.889 38.2669C30.8576 39.2862 29.4587 39.8588 28 39.8588H24.5295C24.0015 39.8588 23.6623 39.3316 23.8145 38.8334C23.8896 38.5797 23.9465 38.3188 23.9703 38.0471C24.019 37.4701 23.9461 36.8895 23.7561 36.3418C23.5661 35.7942 23.2632 35.2914 22.8666 34.8654C22.4699 34.4393 21.9881 34.0993 21.4517 33.8666C20.9152 33.634 20.3358 33.5139 19.75 33.5139C19.1641 33.5139 18.5847 33.634 18.0482 33.8666C17.5118 34.0993 17.03 34.4393 16.6333 34.8654C16.2367 35.2914 15.9338 35.7942 15.7438 36.3418C15.5539 36.8895 15.4809 37.4701 15.5296 38.0471C15.5535 38.3188 15.6103 38.5797 15.6873 38.8334C15.8376 39.3316 15.4985 39.8588 14.9723 39.8588H9.66663C8.20794 39.8588 6.80899 39.2862 5.77754 38.2669C4.74609 37.2476 4.16663 35.8651 4.16663 34.4235V29.1821C4.16663 28.6603 4.70013 28.3251 5.20429 28.4755C5.46096 28.5498 5.72496 28.606 5.99996 28.6295C6.58376 28.6777 7.17132 28.6056 7.72549 28.4178C8.27965 28.2301 8.78838 27.9308 9.2195 27.5388C9.65062 27.1468 9.99477 26.6707 10.2302 26.1405C10.4656 25.6104 10.5871 25.0378 10.5871 24.4588C10.5871 23.8799 10.4656 23.3073 10.2302 22.7771C9.99477 22.247 9.65062 21.7709 9.2195 21.3789C8.78838 20.9869 8.27965 20.6876 7.72549 20.4998C7.17132 20.3121 6.58376 20.24 5.99996 20.2881C5.72496 20.3117 5.46096 20.3679 5.20429 20.444C4.70013 20.5925 4.16663 20.2573 4.16663 19.7374V16.3059Z" fill="#6863BF"/>
</g>
<defs>
<clipPath id="clip0_1_949">
<rect width="44" height="43.4824" fill="white" transform="translate(0.5)"/>
</clipPath>
</defs>
</svg>
