<svg width="89" height="55" viewBox="0 0 89 55" fill="none" xmlns="http://www.w3.org/2000/svg">
<g clip-path="url(#clip0_1_1042)">
<path d="M23.008 22.3997L1.12653 52.8026C0.45475 53.7176 1.11659 55.0005 2.26127 55.0005H12.8208C13.7478 55.0005 14.6163 54.5485 15.14 53.7907L26.5293 35.8858L37.8634 53.806C38.3883 54.554 39.2501 54.9995 40.1716 54.9995H50.8317C51.9741 54.9995 52.636 53.7208 51.9675 52.8047L34.0504 26.5588L51.8548 2.19417C52.5244 1.27807 51.8614 -0.000545502 50.719 -0.000545502H40.9339C40.0147 -0.000545502 39.1528 0.444949 38.628 1.19072L23.008 22.3997Z" fill="#1D1D1D"/>
<path d="M15.022 1.17106C14.4949 0.436214 13.6408 -0.000545502 12.7304 -0.000545502H2.27581C1.13665 -0.000545502 0.473713 1.27261 1.13665 2.18871L18.4803 25.6318L25.5705 15.5426L15.022 1.17106Z" fill="#1D1D1D"/>
<path d="M55.2348 18.1266V52.992C55.2348 54.1014 56.1442 55 57.2668 55H66.0828C67.2054 55 68.1147 54.1014 68.1147 52.992V2.008C68.1147 1.53303 67.9467 1.09627 67.6672 0.752319L55.2348 18.1266Z" fill="#1D1D1D"/>
<path d="M57.2668 0C56.1442 0 55.2348 0.898632 55.2348 2.008V15.1479L66.0739 0H57.2668Z" fill="#1D1D1D"/>
<path d="M76.938 16.1527C78.3645 16.1516 79.6937 16.1472 81.0229 16.1494C82.7321 16.1516 84.4414 16.1592 86.1507 16.1614C86.7065 16.1614 87.2634 16.1537 87.8202 16.1417C88.0058 16.1385 88.1418 16.1592 88.1406 16.3896C88.134 17.7021 88.1362 19.0134 88.134 20.3259C88.134 20.3685 88.1152 20.4122 88.0942 20.5061C87.449 20.5126 86.8081 20.5246 86.1695 20.5257C84.9364 20.5279 83.7045 20.5246 82.4725 20.5224C80.7522 20.5192 79.0318 20.5126 77.3115 20.5137C75.8121 20.5137 74.3117 20.5246 72.8123 20.5301C72.3129 20.5312 71.8113 20.5366 71.3152 20.5202C71.2412 20.5181 71.1296 20.4132 71.1296 20.3423C71.1185 18.9992 71.1152 17.654 71.1318 16.3066C71.1329 16.2051 71.2809 16.0544 71.3914 15.9736C73.5791 14.3783 75.7724 12.7896 77.9634 11.1998C78.3777 10.8995 78.791 10.5982 79.2484 10.2651C78.7899 9.9332 78.3545 9.61765 77.9203 9.30318C75.7271 7.71665 73.5338 6.13122 71.3461 4.53814C71.2412 4.4617 71.1318 4.32085 71.1307 4.19419C71.1152 2.86207 71.1218 1.52777 71.1229 0.193473C71.1229 0.161808 71.1351 0.127959 71.1539 0.0340559C71.5892 0.0264126 72.0279 0.011126 72.4643 0.011126C73.6963 0.00894222 74.9282 0.0133098 76.1602 0.0154936C77.8916 0.0187693 79.623 0.0253207 81.3554 0.0242288C83.1763 0.022045 84.9994 0.0122179 86.8214 0.00566653C87.1661 0.00457463 87.5097 0.00566653 87.8545 0.00129894C88.0313 -0.00088486 88.144 0.0416992 88.1429 0.24916C88.1362 1.56162 88.1373 2.87299 88.134 4.18545C88.134 4.22804 88.1152 4.2728 88.0909 4.37653C84.4171 4.37872 80.7488 4.38199 77.0817 4.38418C77.0684 4.40602 77.0541 4.42895 77.0408 4.45078C79.6992 6.37362 82.3565 8.29754 85.0657 10.2575C82.3598 12.2218 79.6937 14.1567 76.9403 16.1559L76.938 16.1527Z" fill="#1D1D1D"/>
<path d="M71.1197 31.0101C71.1197 29.5098 71.113 28.0107 71.1208 26.5093C71.1329 24.2305 72.9195 22.4343 75.2012 22.4169C76.9778 22.4038 78.7523 22.4125 80.5268 22.4169C81.7687 22.4201 83.0206 22.3776 84.2492 22.4518C86.4557 22.585 88.0346 24.1639 88.0876 26.3783C88.1584 29.345 88.1274 32.3269 88.1296 35.3045C88.1296 35.6125 88.0777 35.9313 88.0213 36.2436C87.6258 38.4438 85.858 39.5913 83.9697 39.6274C82.4239 39.6569 80.8837 39.6372 79.3412 39.6339C77.9214 39.6306 76.4994 39.6416 75.084 39.6099C72.8709 39.5608 71.1307 37.7635 71.1197 35.5448C71.113 34.0347 71.1186 32.5224 71.1186 31.0112L71.1197 31.0101ZM84.6315 31.0614C84.647 31.0592 84.6624 31.0571 84.6779 31.0549C84.6779 30.4216 84.689 29.7861 84.6724 29.155C84.6658 28.882 84.6414 28.6003 84.5597 28.3513C84.2006 27.2551 83.3332 26.7877 82.1941 26.7703C80.4218 26.743 78.6407 26.7648 76.8607 26.7976C75.6884 26.8194 74.578 27.5936 74.5703 28.9049C74.5614 30.3943 74.5769 31.8804 74.5957 33.3664C74.5979 33.5488 74.6587 33.7311 74.7305 33.8927C75.1979 34.954 76.147 35.2751 77.2839 35.2794C78.3822 35.2838 79.4827 35.2729 80.5843 35.2543C81.3511 35.2412 82.1201 35.251 82.8902 35.1615C83.8073 35.0556 84.542 34.3207 84.6171 33.4254C84.6834 32.6338 84.6315 31.8498 84.6315 31.0614Z" fill="#1D1D1D"/>
<path d="M88.1076 39.8829C88.1208 40.0609 88.1374 40.1744 88.1374 40.2913C88.1385 43.6914 88.144 47.0916 88.1352 50.4929C88.133 51.4756 87.9429 52.4419 87.2977 53.3241C86.659 54.1977 85.7994 54.7305 84.8083 54.8637C83.8714 54.9893 82.9333 54.9762 81.9997 54.9893C80.7655 55.0057 79.5346 54.9991 78.3049 54.9827C77.0552 54.9664 75.7879 55.01 74.5648 54.8779C72.5837 54.665 71.1307 52.9376 71.1219 50.9209C71.1097 47.7893 71.1164 44.6534 71.1175 41.5196C71.1175 41.4246 71.1307 41.3286 71.1429 41.167C71.6622 41.4541 72.1362 41.7162 72.6091 41.9793C73.1781 42.296 73.7549 42.6028 74.3095 42.9402C74.4278 43.0123 74.5283 43.1913 74.5305 43.3366C74.5504 44.9558 74.5581 46.5773 74.5493 48.201C74.5405 49.9502 75.8001 50.6348 77.2596 50.6283C78.5148 50.6228 79.7678 50.6293 81.024 50.6184C81.5676 50.613 82.1157 50.613 82.6626 50.5453C83.9487 50.3869 84.6735 49.5647 84.6768 48.297C84.6813 46.5522 84.6824 44.8063 84.6724 43.0636C84.6713 42.8255 84.7464 42.6683 84.9442 42.5067C85.8768 41.7402 86.8005 40.9595 87.7275 40.1853C87.8335 40.0969 87.944 40.0128 88.1087 39.8818L88.1076 39.8829Z" fill="#1D1D1D"/>
</g>
<defs>
<clipPath id="clip0_1_1042">
<rect width="87.2857" height="55.0011" fill="white" transform="translate(0.857178 -0.000545502)"/>
</clipPath>
</defs>
</svg>
