<svg width="24" height="25" viewBox="0 0 24 25" fill="none" xmlns="http://www.w3.org/2000/svg">
<g clip-path="url(#clip0_1_2029)">
<path d="M2.068 5.982L10.943 14.858C11.2056 15.1207 11.5562 15.2767 11.9272 15.2957C12.2981 15.3148 12.6629 15.1955 12.951 14.961L13.065 14.858L21.934 5.988C21.963 6.098 21.982 6.21 21.992 6.325L22 6.5V18.5C22.0002 19.0046 21.8096 19.4906 21.4665 19.8605C21.1234 20.2305 20.6532 20.4572 20.15 20.495L20 20.5H4C3.49542 20.5002 3.00943 20.3096 2.63945 19.9665C2.26947 19.6234 2.04284 19.1532 2.005 18.65L2 18.5V6.5C2 6.38 2.01 6.264 2.03 6.15L2.068 5.982ZM20 4.5C20.121 4.5 20.24 4.51 20.355 4.531L20.525 4.57L12.005 13.09L3.482 4.568C3.592 4.538 3.706 4.518 3.822 4.508L4 4.5H20Z" fill="#F26D6E"/>
</g>
<defs>
<clipPath id="clip0_1_2029">
<rect width="24" height="24" fill="white" transform="translate(0 0.5)"/>
</clipPath>
</defs>
</svg>
