<svg width="45" height="44" viewBox="0 0 45 44" fill="none" xmlns="http://www.w3.org/2000/svg">
<g clip-path="url(#clip0_1_922)">
<path fill-rule="evenodd" clip-rule="evenodd" d="M18.5516 7.33331C17.0755 7.33331 15.6599 7.91278 14.6162 8.94423C13.5725 9.97568 12.9861 11.3746 12.9861 12.8333H7.42063C6.43659 12.8333 5.49286 13.2196 4.79704 13.9073C4.10122 14.5949 3.71031 15.5275 3.71031 16.5V34.8333C3.71031 35.8058 4.10122 36.7384 4.79704 37.426C5.49286 38.1137 6.43659 38.5 7.42063 38.5H37.1032C38.0872 38.5 39.0309 38.1137 39.7268 37.426C40.4226 36.7384 40.8135 35.8058 40.8135 34.8333V16.5C40.8135 15.5275 40.4226 14.5949 39.7268 13.9073C39.0309 13.2196 38.0872 12.8333 37.1032 12.8333H31.5377C31.5377 11.3746 30.9513 9.97568 29.9076 8.94423C28.8639 7.91278 27.4483 7.33331 25.9722 7.33331H18.5516ZM18.5516 11C18.0596 11 17.5877 11.1931 17.2398 11.537C16.8919 11.8808 16.6964 12.3471 16.6964 12.8333H27.8274C27.8274 12.3471 27.6319 11.8808 27.284 11.537C26.9361 11.1931 26.4642 11 25.9722 11H18.5516ZM7.42063 23.8333C6.92861 23.8333 6.45674 24.0265 6.10883 24.3703C5.76092 24.7141 5.56547 25.1804 5.56547 25.6666C5.56547 26.1529 5.76092 26.6192 6.10883 26.963C6.45674 27.3068 6.92861 27.5 7.42063 27.5H37.1032C37.5952 27.5 38.0671 27.3068 38.415 26.963C38.7629 26.6192 38.9583 26.1529 38.9583 25.6666C38.9583 25.1804 38.7629 24.7141 38.415 24.3703C38.0671 24.0265 37.5952 23.8333 37.1032 23.8333H7.42063Z" fill="#51B3D8"/>
</g>
<defs>
<clipPath id="clip0_1_922">
<rect width="44.5238" height="44" fill="white"/>
</clipPath>
</defs>
</svg>
