<svg width="20" height="21" viewBox="0 0 20 21" fill="none" xmlns="http://www.w3.org/2000/svg">
<path fill-rule="evenodd" clip-rule="evenodd" d="M10 0.5C4.477 0.5 0 4.977 0 10.5C0 12.39 0.525 14.16 1.438 15.668L0.546 18.7C0.494785 18.8741 0.491415 19.0587 0.536244 19.2346C0.581074 19.4104 0.672448 19.5709 0.800759 19.6992C0.929071 19.8276 1.08958 19.9189 1.26542 19.9638C1.44125 20.0086 1.62592 20.0052 1.8 19.954L4.832 19.062C6.39068 20.0051 8.17822 20.5025 10 20.5C15.523 20.5 20 16.023 20 10.5C20 4.977 15.523 0.5 10 0.5ZM7.738 12.763C9.761 14.785 11.692 15.052 12.374 15.077C13.411 15.115 14.421 14.323 14.814 13.404C14.8636 13.2897 14.8816 13.1641 14.8661 13.0405C14.8507 12.9168 14.8023 12.7996 14.726 12.701C14.178 12.001 13.437 11.498 12.713 10.998C12.5618 10.8935 12.3761 10.8516 12.1947 10.881C12.0133 10.9105 11.8503 11.009 11.74 11.156L11.14 12.071C11.1085 12.1202 11.0593 12.1555 11.0026 12.1696C10.9459 12.1837 10.8859 12.1756 10.835 12.147C10.428 11.914 9.835 11.518 9.409 11.092C8.983 10.666 8.611 10.1 8.402 9.719C8.37609 9.67059 8.3686 9.61444 8.38091 9.56093C8.39323 9.50743 8.42453 9.4602 8.469 9.428L9.393 8.742C9.52487 8.62734 9.60996 8.4682 9.63209 8.29486C9.65422 8.12153 9.61183 7.94611 9.513 7.802C9.065 7.146 8.543 6.312 7.786 5.759C7.68831 5.6882 7.57386 5.64406 7.45393 5.63091C7.334 5.61776 7.21271 5.63606 7.102 5.684C6.182 6.078 5.386 7.088 5.424 8.127C5.449 8.809 5.716 10.74 7.738 12.763Z" fill="#159667"/>
</svg>
